<svg width="81" height="16" viewBox="0 0 81 16" fill="none" xmlns="http://www.w3.org/2000/svg">
<path d="M5.248 5.032L1.36 14.696C1.31733 14.8027 1.25867 14.8827 1.184 14.936C1.10933 14.9893 1.024 15.016 0.928 15.016C0.778667 15.016 0.666667 14.9787 0.592 14.904C0.517333 14.8187 0.474667 14.7173 0.464 14.6C0.453333 14.5467 0.458667 14.4827 0.48 14.408L4.704 4.072C4.75733 3.95467 4.82133 3.87467 4.896 3.832C4.98133 3.77867 5.07733 3.752 5.184 3.752C5.29067 3.752 5.38133 3.784 5.456 3.848C5.54133 3.90133 5.60533 3.976 5.648 4.072L9.856 14.36C9.87733 14.424 9.888 14.488 9.888 14.552C9.888 14.7013 9.84 14.8187 9.744 14.904C9.648 14.9787 9.536 15.016 9.408 15.016C9.30133 15.016 9.20533 14.9893 9.12 14.936C9.04533 14.872 8.98667 14.792 8.944 14.696L4.96 4.968L5.248 5.032ZM2.288 11.768L2.688 10.824H7.648L7.84 11.768H2.288ZM15.4794 6.632C16.1834 6.632 16.7434 6.776 17.1594 7.064C17.586 7.34133 17.89 7.72533 18.0714 8.216C18.2634 8.696 18.3594 9.22933 18.3594 9.816V14.52C18.3594 14.648 18.3114 14.76 18.2154 14.856C18.1194 14.952 18.0074 15 17.8794 15C17.73 15 17.6127 14.952 17.5274 14.856C17.442 14.76 17.3994 14.648 17.3994 14.52V9.864C17.3994 9.43733 17.33 9.048 17.1914 8.696C17.0527 8.344 16.8234 8.06133 16.5034 7.848C16.194 7.63467 15.7834 7.528 15.2714 7.528C14.8127 7.528 14.3754 7.63467 13.9594 7.848C13.554 8.06133 13.2234 8.344 12.9674 8.696C12.7114 9.048 12.5834 9.43733 12.5834 9.864V14.52C12.5834 14.648 12.5354 14.76 12.4394 14.856C12.3434 14.952 12.2314 15 12.1034 15C11.954 15 11.8367 14.952 11.7514 14.856C11.666 14.76 11.6234 14.648 11.6234 14.52V7.352C11.6234 7.224 11.666 7.112 11.7514 7.016C11.8474 6.92 11.9647 6.872 12.1034 6.872C12.242 6.872 12.354 6.92 12.4394 7.016C12.5354 7.112 12.5834 7.224 12.5834 7.352V8.696L12.2154 9.272C12.2367 8.93067 12.3434 8.60533 12.5354 8.296C12.738 7.976 12.994 7.69333 13.3034 7.448C13.6127 7.192 13.954 6.99467 14.3274 6.856C14.7114 6.70667 15.0954 6.632 15.4794 6.632ZM21.8014 14.52C21.8014 14.648 21.7534 14.76 21.6574 14.856C21.5614 14.952 21.4494 15 21.3214 15C21.1827 15 21.0654 14.952 20.9694 14.856C20.884 14.76 20.8414 14.648 20.8414 14.52V7.16C20.8414 7.032 20.884 6.92 20.9694 6.824C21.0654 6.728 21.1827 6.68 21.3214 6.68C21.46 6.68 21.572 6.728 21.6574 6.824C21.7534 6.92 21.8014 7.032 21.8014 7.16V14.52ZM21.3214 5.608C21.0974 5.608 20.9267 5.56 20.8094 5.464C20.7027 5.35733 20.6494 5.208 20.6494 5.016V4.856C20.6494 4.664 20.708 4.52 20.8254 4.424C20.9534 4.31733 21.124 4.264 21.3374 4.264C21.54 4.264 21.6947 4.31733 21.8014 4.424C21.9187 4.52 21.9774 4.664 21.9774 4.856V5.016C21.9774 5.208 21.9187 5.35733 21.8014 5.464C21.6947 5.56 21.5347 5.608 21.3214 5.608ZM27.9753 6.76C28.6366 6.76 29.2019 6.936 29.6713 7.288C30.1406 7.62933 30.4606 8.14133 30.6313 8.824L30.4073 8.888L30.5033 8.6C30.6419 8.28 30.8713 7.98133 31.1913 7.704C31.5219 7.416 31.8953 7.18667 32.3113 7.016C32.7273 6.84533 33.1486 6.76 33.5753 6.76C34.2473 6.76 34.7859 6.904 35.1913 7.192C35.6073 7.48 35.9059 7.86933 36.0873 8.36C36.2793 8.84 36.3753 9.384 36.3753 9.992V14.52C36.3753 14.648 36.3273 14.76 36.2313 14.856C36.1459 14.952 36.0339 15 35.8953 15C35.7566 15 35.6393 14.952 35.5433 14.856C35.4579 14.76 35.4153 14.648 35.4153 14.52V10.04C35.4153 9.60267 35.3459 9.20267 35.2073 8.84C35.0686 8.47733 34.8499 8.18933 34.5513 7.976C34.2526 7.76267 33.8526 7.656 33.3513 7.656C32.9139 7.656 32.4926 7.76267 32.0873 7.976C31.6926 8.18933 31.3673 8.47733 31.1112 8.84C30.8659 9.20267 30.7433 9.60267 30.7433 10.04V14.52C30.7433 14.648 30.6953 14.76 30.5993 14.856C30.5139 14.952 30.4019 15 30.2633 15C30.1246 15 30.0073 14.952 29.9113 14.856C29.8259 14.76 29.7833 14.648 29.7833 14.52V9.992C29.7833 9.55467 29.7193 9.16 29.5913 8.808C29.4633 8.456 29.2553 8.17867 28.9673 7.976C28.6793 7.76267 28.2899 7.656 27.7993 7.656C27.3619 7.656 26.9459 7.76267 26.5513 7.976C26.1673 8.17867 25.8526 8.456 25.6073 8.808C25.3726 9.16 25.2553 9.55467 25.2553 9.992V14.52C25.2553 14.648 25.2073 14.76 25.1113 14.856C25.0153 14.952 24.9033 15 24.7753 15C24.6259 15 24.5086 14.952 24.4233 14.856C24.3379 14.76 24.2953 14.648 24.2953 14.52V7.352C24.2953 7.224 24.3379 7.112 24.4233 7.016C24.5193 6.92 24.6366 6.872 24.7753 6.872C24.9139 6.872 25.0259 6.92 25.1113 7.016C25.2073 7.112 25.2553 7.224 25.2553 7.352V8.84L24.8233 9.432C24.8553 9.112 24.9566 8.792 25.1273 8.472C25.3086 8.152 25.5433 7.864 25.8313 7.608C26.1193 7.352 26.4446 7.14933 26.8073 7C27.1806 6.84 27.5699 6.76 27.9753 6.76ZM42.585 15.16C41.7637 15.16 41.0383 14.984 40.409 14.632C39.7797 14.28 39.289 13.7893 38.937 13.16C38.585 12.5307 38.409 11.7947 38.409 10.952C38.409 10.0453 38.585 9.272 38.937 8.632C39.2997 7.992 39.7637 7.50133 40.329 7.16C40.905 6.808 41.513 6.632 42.153 6.632C42.6223 6.632 43.0757 6.71733 43.513 6.888C43.961 7.048 44.3557 7.29333 44.697 7.624C45.049 7.944 45.3263 8.33867 45.529 8.808C45.7423 9.27733 45.8597 9.82133 45.881 10.44C45.8703 10.568 45.817 10.68 45.721 10.776C45.625 10.8613 45.513 10.904 45.385 10.904H38.969L38.777 10.04H45.081L44.873 10.232V9.912C44.8303 9.41067 44.6703 8.984 44.393 8.632C44.1157 8.28 43.7797 8.01333 43.385 7.832C42.9903 7.65067 42.5797 7.56 42.153 7.56C41.833 7.56 41.5023 7.624 41.161 7.752C40.8303 7.88 40.5263 8.08267 40.249 8.36C39.9823 8.62667 39.7637 8.97333 39.593 9.4C39.4223 9.816 39.337 10.312 39.337 10.888C39.337 11.5173 39.465 12.088 39.721 12.6C39.977 13.112 40.345 13.5173 40.825 13.816C41.3157 14.1147 41.897 14.264 42.569 14.264C42.9423 14.264 43.2783 14.2107 43.577 14.104C43.8757 13.9973 44.137 13.8587 44.361 13.688C44.585 13.5067 44.7717 13.32 44.921 13.128C45.0383 13.032 45.1557 12.984 45.273 12.984C45.3797 12.984 45.4703 13.0267 45.545 13.112C45.6303 13.1973 45.673 13.2933 45.673 13.4C45.673 13.528 45.6197 13.64 45.513 13.736C45.193 14.12 44.777 14.456 44.265 14.744C43.753 15.0213 43.193 15.16 42.585 15.16Z" fill="#EDFBFF"/>
<path d="M48.2719 15L47.0719 2.88H53.3719L52.4719 11.9L56.0919 11.7L54.9519 15H48.2719ZM61.8561 5.8L62.1961 5.68L61.5161 15H57.7361L57.0961 5.68C57.8561 5.98667 58.6628 6.14 59.5161 6.14C60.3828 6.14 61.1628 6.02667 61.8561 5.8ZM59.6361 5.26C58.9694 5.26 58.4094 5.06 57.9561 4.66C57.5028 4.26 57.2761 3.74 57.2761 3.1C57.2761 2.44667 57.4961 1.92667 57.9361 1.54C58.3894 1.14 58.9494 0.94 59.6161 0.94C60.2961 0.94 60.8628 1.14 61.3161 1.54C61.7694 1.94 61.9961 2.46 61.9961 3.1C61.9961 3.74 61.7694 4.26 61.3161 4.66C60.8628 5.06 60.3028 5.26 59.6361 5.26ZM72.0847 12C72.0847 12.76 71.8314 13.3933 71.3247 13.9C70.818 14.4067 70.2314 14.7533 69.5647 14.94C68.9114 15.1133 68.278 15.2 67.6647 15.2C67.0514 15.2 66.5114 15.16 66.0447 15.08C65.5914 15 65.2047 14.9067 64.8847 14.8C64.298 14.5733 63.8314 14.36 63.4847 14.16L63.3047 14.04L64.1847 12.22C64.9847 12.6733 65.658 12.9 66.2047 12.9C66.7514 12.9 67.0247 12.6733 67.0247 12.22C67.0247 11.9933 66.8514 11.76 66.5047 11.52C66.158 11.28 65.778 11.0533 65.3647 10.84C64.9647 10.6267 64.5914 10.3 64.2447 9.86C63.898 9.42 63.7247 8.91333 63.7247 8.34C63.7247 7.31333 64.1114 6.54 64.8847 6.02C65.658 5.5 66.678 5.24 67.9447 5.24C68.5847 5.24 69.2114 5.29333 69.8247 5.4C70.438 5.50667 70.898 5.61333 71.2047 5.72L71.6447 5.9L71.1447 7.92C70.3847 7.64 69.738 7.5 69.2047 7.5C68.6714 7.5 68.4047 7.70667 68.4047 8.12C68.4047 8.32 68.5314 8.51333 68.7847 8.7C69.038 8.87333 69.3447 9.04667 69.7047 9.22C70.0647 9.39333 70.4247 9.59333 70.7847 9.82C71.1447 10.0333 71.4514 10.3333 71.7047 10.72C71.958 11.0933 72.0847 11.52 72.0847 12ZM78.4898 11.44C78.4765 12.2133 78.7498 12.6 79.3098 12.6C79.4698 12.6 79.6632 12.5267 79.8898 12.38L80.3098 14.32C80.2298 14.3867 80.1165 14.4733 79.9698 14.58C79.8365 14.6733 79.5365 14.8 79.0698 14.96C78.6165 15.12 78.1432 15.2 77.6498 15.2C76.7432 15.2 76.0032 14.8933 75.4298 14.28C74.8565 13.6533 74.5498 12.86 74.5098 11.9L74.3298 8.12H72.7898L73.0298 5.52H74.2298L74.1498 3.56L78.8898 2.6L78.7498 5.52H79.9098L80.1498 8.12H78.6298L78.4898 11.44Z" fill="#21D3FF"/>
</svg>
